<?xml version="1.0"?><svg version="1.2" baseProfile="tiny-ps" viewBox="0 0 300 300" xmlns="http://www.w3.org/2000/svg" xmlns:xlink="http://www.w3.org/1999/xlink"><title>TerezaPachtova</title><g><g fill="#fffefe" transform="matrix(.1 0 0 -.1 0 300)"><path d="M0 1500V0h3000v3000H0V1500z"/></g><g fill="#e6dfe2" transform="matrix(.1 0 0 -.1 0 300)"><path d="M1502 2876c-45-7-85-12-87-11-3 0-27-19-54-42l-49-43-36-59-36-58-26-89c-43-145-44-153-55-289-6-71-13-157-16-189l-5-60 12-57 12-57-23-41-23-42-51-33c-27-18-60-38-72-45-30-15-82-92-105-155-11-28-28-69-38-91s-25-59-32-82l-12-41-43 1h-43l-24-22-24-23-20 6-19 6-13-15c-7-8-19-15-26-15h-14l-20-32c-11-18-20-43-20-54v-22l15-12c8-7 15-18 15-25v-12l-42-19-43-19-2-87-3-88 40-29c22-16 60-35 84-42l45-13-6-30c-3-17-16-65-30-106l-25-75 5-84 5-84 41-40 41-41 38 1 38 2 12-29 13-29 54-26c30-14 74-28 99-31 24-4 49-9 55-13l10-7-15-49c-23-74-54-197-54-217V0h1339l-5 53-5 52-34 71c-35 71-42 94-27 94 10 0 41 27 171 148 202 187 288 273 331 331l45 60 30 3 30 3 3 30c1 17 9 46 18 65l15 36-11 44c-7 25-14 62-17 82l-5 37-14 12c-8 6-14 18-14 26s-11 25-25 39-32 41-40 61-32 55-53 78c-64 73-107 128-118 155-7 14-40 54-74 90s-66 73-71 83c-5 9-16 17-24 17h-15v52l-30 11-30 11-5 18-6 17-74 41-75 40-14 28-14 27-4 91-4 91-26 54-26 54-6 93-6 92-21 43c-12 23-32 55-45 70l-24 29v35c0 20-9 66-20 102l-20 66-35 38c-19 20-40 37-45 37-6 0-10 4-10 8 0 21-153 72-210 70-14 0-62-6-108-12zm827-1762 40-46 38-19c20-10 47-19 60-19h22l-5-14-5-14 16-32c9-17 23-34 31-37 23-8 17-27-24-74-21-24-55-66-76-94-45-60-132-152-202-211l-51-44h-26c-14 0-29 5-32 10-3 6-17 10-31 10h-24v66l39 109 39 110 21 107 22 107 30 66 29 65h48l41-46z"/></g><g fill="#d6c9c3" transform="matrix(.1 0 0 -.1 0 300)"><path d="m1503 2868-62-7-34-16-35-16-33-42c-19-23-48-63-66-88l-31-46-17-59c-9-32-25-90-36-129l-20-70-4-105c-3-58-9-121-15-140-5-19-10-55-10-81v-45l16-47 16-46-27-48-26-48-79-49-80-49-34-61c-18-34-39-79-46-101s-19-49-25-60c-7-11-21-42-31-70-10-27-24-59-31-70l-13-19v34h-66l-24-30-25-29-17-1c-9 0-19 6-21 13l-5 12-1-12-1-13h-35l14-9 15-9-13-16c-8-9-17-16-21-16h-8l5 23 5 22-15-20-16-20-1-37v-38h15c37 0 3-42-52-65l-35-15 7-22c9-28 8-41 0-94l-7-41 28-27 29-27 58-21 57-21v-21c0-11-14-64-31-117l-32-97 7-65 7-66 36-47 36-46 43 6 44 6v-14c0-7 9-25 20-39l20-26 53-19c29-11 74-23 101-27l48-8-6 20-6 19 31 30 30 29-1 60c-1 33-1 65-1 71 1 17 48 34 139 50 103 18 141 36 153 73l5 14 15-17c7-10 22-26 32-37 9-10 17-23 17-27 0-5 11-15 25-22s25-17 25-22c0-4 5-8 11-8h11l-3 28c-2 15 0 32 3 38l7 10-15 44c-8 24-13 49-10 56l5 13-29 30-28 31h-50l-5 13-5 13 19 22c10 13 21 22 26 22 4-1 9 4 12 11l4 12-79-6c-44-4-160-10-258-13l-179-7 8 13 8 12-14 9c-7 4-11 10-9 12 3 2 84 7 180 11 205 8 220 9 365 37l110 22 75 29c41 16 85 39 98 51l22 20v46l-26 20c-14 11-46 28-72 37-49 19-63 30-57 48 3 6 6 39 9 74l5 63-16 6c-9 4-25 15-35 25l-18 18 14 23 14 22-5 40c-3 22-5 94-3 160l1 120 9 3c4 2 19 12 32 23l23 21 5-29 5-28 38-3 37-3v45l21 30c12 17 32 39 46 50l25 19 9-14c5-8 9-26 10-41 1-16 2-34 3-40l1-13 28-3 29-3-6-16c-3-8-6-29-6-46v-31l-11 11-11 11-13-4-13-5 32-32c45-46 91-116 106-161l13-39-6-55-6-55-10-10-11-11v-215l10-6 10-6v120l15-6c9-3 22-18 30-34l15-28v-38l1-38 14 25c8 14 14 36 15 48v24l-20 25-20 26v28c0 33 9 59 21 59 5 0 9-8 10-17l1-18 5 15c3 8 11 29 18 45 7 17 17 43 24 58 15 38 14 65-5 134-9 32-20 76-26 98l-9 40 5 50c2 28 7 61 9 75 3 14 6 30 6 37l1 12 33-10c17-6 39-13 47-16 8-4 26-8 38-10l24-4-4 13c-3 7-14 14-25 16s-31 14-44 28l-24 25-5 97-6 97-28 55-29 55-7 105-7 105-24 43c-13 24-32 58-41 75l-18 32v28c0 15-9 56-21 90l-21 62-36 30c-20 17-44 38-54 47-26 26-68 45-128 57-56 11-68 11-177-1zm387-1048c0-5-2-10-4-10-3 0-8 5-11 10l-6 10h10c6 0 11-4 11-10zm-30-20c0-5-7-10-15-10s-15 5-15 10c0 6 7 10 15 10s15-4 15-10zm-332-146 3-59-15 20-15 20-1 43v44l13-4 12-5 3-59zm-536-160 3-45-17 21-18 22v48h28l4-46zm-102-84 25-20h-45v14c0 8-6 17-12 19l-13 5 10 1c6 0 21-8 35-19zm-167-103 5-14h-14c-15 0-18 9-7 20 9 9 10 9 16-6zm57-32-12-15-11 7-11 6 20 8c27 11 28 11 14-6zm-45-16c-8-12-35-12-35 0 0 11 22 20 33 14 4-2 5-9 2-14zm95-414c0-2-9-9-20-15l-20-11-19 11-20 10-15-16-16-16-13 5-12 4 30 16 30 16 38 1c20 0 37-2 37-5zm490-135c0-5-4-10-10-10-5 0-10 5-10 10 0 6 5 10 10 10 6 0 10-4 10-10zm-30-40c0-5 5-9 12-7l12 2 4-17 3-17-30-16-31-16v25c0 13-3 31-6 40l-6 16h42v-10zm-117-77c-7-2-19-2-25 0l-13 5h50l-12-5zm597 1127c0-5 5-10 11-10h10l-6 10c-3 6-8 10-11 10-2 0-4-4-4-10zm710-415c7-8 16-15 21-15s9 7 9 15v15h-42l12-15zm40 5c0-5 5-10 11-10h10l-6 10c-3 6-8 10-11 10-2 0-4-4-4-10zm-37-60c-3-17-9-33-14-36l-8-5 6-17 6-17-8 7-8 8-19-41c-10-23-18-47-18-55 0-7-4-15-9-19l-10-5-17 35-16 35h-35l-41 42c-44 44-55 46-45 10l5-22h36l42-50c24-28 45-49 47-46 3 2 13-4 24-15l19-19h23c26 0 49-13 46-26-6-19 14-60 40-81l26-22-36-38c-20-21-72-83-116-138-89-110-134-155-205-205l-48-33-32 17-33 18-29-4-30-3-28-55c-15-30-28-56-28-58s10 0 23 4l22 6-25-20-25-20-3-26-2-27 24-26 24-26 48 17c52 17 68 15 35-6l-21-13v-17c0-9 5-20 10-23l10-6 55 25c29 14 58 26 62 26 5 0 58 46 118 103 61 56 141 131 180 167 99 92 129 124 193 202l55 69 14-6c8-3 19-2 25 1l10 6-23 24-22 23-73 17-74 16v13c0 7-11 20-25 29l-25 16v39l26 20 26 20-4 18-3 18-40 3c-22 2-45 8-52 14l-13 10 5 34 4 34h-31l6 23c3 12 6 25 6 28 0 4 8 9 18 11l18 5 1 21 2 22h-39l-7-30zm190-51c-7-7-13-19-13-26s-5-13-11-13h-10l5-9 6-9-15-6c-8-3-15-10-15-16 0-19 15-10 39 26l24 35 7-11 7-12 6 17 7 16-9-6-9-5-4 15-3 16-12-12zM1496 615c4-8 10-15 15-15 4 0 24-14 44-31l36-32 6 7 6 6-19 21c-10 12-36 30-56 40l-37 19 5-15zm-40-243c-3-5-22-17-42-27l-36-17 48-23c56-25 65-24 39 5l-19 21 13 21c7 11 10 22 8 25-3 2-8 0-11-5zm132-19c7-3 16-2 19 1 4 3-2 6-13 5l-19-1 13-5zm-303-44c-22-4-92-8-156-8l-116-1-12-27c-12-26-71-247-71-266v-8l118 3 117 3 3 43 3 43 17-3 17-3 20-37 19-36 31-4c16-1 40-2 52 0l22 3 6 57c3 31 9 86 14 122l8 65-9 32-9 33-17-1c-9-1-35-5-57-10zm35-255V39l-10 6-10 6 5 10c9 14 15 11 15-7zm151 140 1-19 5 13c3 7 2 16-1 19-3 4-6-2-5-13zm327-26c5-5 16-8 23-6l13 4-23 7-24 6 11-11zm-332-33-5-15h9c6 0 10 7 10 15s-2 15-4 15-6-7-10-15zm-34-97 3-23 23-3 22-3-11 25-12 26h-28l3-22z"/></g><g fill="#cdaf93" transform="matrix(.1 0 0 -.1 0 300)"><path d="M1470 2861c-19-4-49-15-67-24l-31-17-39-50c-21-28-50-67-65-86-16-20-28-43-28-51 0-7-9-39-20-71-11-31-27-86-36-122l-15-65v-70c-1-38-8-109-17-156l-16-86 18-66 18-66-22-47-23-46-75-48c-41-27-77-51-81-52-10-5-68-104-76-130-4-12-27-70-52-127-24-57-41-106-39-109 3-3 8 3 12 12l6 17 22-7 21-6-12 13c-7 7-13 23-13 35v22l45 38 44 39 4 43 3 42 28 35c33 41 39 42 66 15 22-22 25-19 10 10l-10 19 10 6 10 6 16-37 16-38-7-36c-4-19-9-48-10-65-1-16-6-47-10-67l-7-37-29-32-28-32-16 13-15 12v-25c0-14-5-29-10-32l-10-6 1 8c1 4 1 16 0 26l-1 17h-65l13-8 12-8-6-32c-4-18-10-32-15-32h-9v70h-30l2-30c1-16 6-30 10-30s8-4 8-10v-10h-58l-5-14-5-13-43-7-43-7-68 13-68 12v31l-10-15c-5-8-10-30-10-47v-33h31l-3-18-3-17-35-17c-19-9-41-22-48-28l-13-12 7-17c4-9 6-43 5-76l-2-61 18-17c22-19 85-47 108-47h15v15c0 8-4 15-10 15-5 0-10 5-10 11v11l18-7c22-9 149-24 271-32l95-6 70 13c39 7 85 20 101 29 33 18 48 19 188 20l98 1 71 15 71 15 17 15 17 16-4 47c-2 26-7 58-10 72l-5 25-10-27-9-26-26-7c-14-3-28-3-31 0s4 8 16 12c23 6 29 18 12 28l-9 6-21-13-20-13-18 11c-9 6-18 20-20 30l-3 19 45 27 44 26 10-10 10-10 4 31 5 31h-7c-4 0-13 20-20 45l-13 45h-27v-23l-7 6-6 7-12-10-12-10v34l29 29c15 17 28 36 28 43v13l-15-5-15-6v35c0 20-4 38-9 41-4 3-11 24-15 46-3 22-10 40-14 40h-8l4 38c2 20 9 43 14 49l10 13-5 15-6 14 8 5c4 3 18-4 31-16l23-22-7 25c-13 40-7 92 10 87l9-3 5 27 5 28 28-23 28-22 2-37 2-38h10c6 0 20-3 32-6l21-6 7 34c4 18 12 38 17 45l10 12-5 13-5 13-1-16c-1-9-7-22-15-28l-14-12-6 46c-4 24-11 47-17 50-5 4-9 20-9 36v30l33 14 32 13 13-10 13-11-6-29-7-28 7-31 7-30 31 24 32 24 42-20 43-21v-11c0-7 11-25 25-41l25-29-5-50-6-50 15-60c9-33 19-83 22-112l7-52 17 9 17 9 7-6 6-6v31l15 6 15 5v18c0 10-9 33-21 52l-21 34 13 122 12 122 76-18c41-10 77-16 79-14 5 4-1 7-42 19-8 3-22 16-32 30l-16 26-2 77-2 78-31 70c-42 95-46 112-44 172l2 53h-16l-1 43-1 43-27 40c-14 22-33 65-41 95-23 81-23 81-37 119l-12 35-48 47c-26 26-59 55-72 63l-25 16-48 5c-91 10-188 12-223 5zm212-246 36-24 38-68c22-37 42-76 46-86l7-17 27-10 27-10-5-45-6-45h14c8 0 14 4 14 10 0 5 9 14 20 20l21 11-13-20-13-21-29-10-29-10 6-7 7-6-9-11c-9-12-23-53-41-124l-11-42-29-30c-16-17-31-30-33-30-3 0-8 23-11 52l-7 51 12 7 12 8-7 26c-3 14-16 35-28 46l-22 20-1 55-1 55 28 9c16 6 28 12 28 15 0 2-16 14-35 26-38 23-45 40-18 40h17l-20 15-19 14-37 1h-37l-8 13c-4 6-9 21-11 32l-3 20 22 48 22 47h42l37-25zm228-201v-15l-10 6c-5 3-10 10-10 16 0 5 5 9 10 9 6 0 10-7 10-16zm-374-57c11-17 24-44 27-59l7-27-10-6-11-7 12-14c15-18 12-21-26-26l-30-3-3 88-3 87h8c4 0 17-15 29-33zm84-205v-14l-22 6c-13 4-30 8-38 10l-15 3-3 21-3 20 18 4 18 3 23-19c12-11 22-26 22-34zm0-52c0-5-7-10-16-10h-15l6 10c3 6 10 10 16 10 5 0 9-4 9-10zm34-42c-3-13-13-27-21-31l-13-8 5-10 6-9h-31v-25l-10 15c-5 8-10 23-10 33v17h13c7 0 20 9 30 20 9 11 22 20 28 20h10l-7-22zm316-189v-10l-10 6c-5 3-10 11-10 16v10l10-6c6-3 10-11 10-16zm-622-330-4-13-7 23-6 24 11-11c5-5 8-16 6-23zm-273-139 6-10h-15c-9 0-16 5-16 10 0 6 4 10 9 10 6 0 13-4 16-10zm485-110 15-10-15-10c-8-5-19-10-25-10-5 0-17 5-25 10l-15 10 15 10c8 5 20 10 25 10 6 0 17-5 25-10zm-830-115c-13-16-40-20-40-7 0 14 12 22 33 22h19l-12-15zm718-22 4-13h-40l-13 16-13 16 29-4 28-3 5-12zm52-48c0-1-9-5-20-8l-20-5v26l20-5c11-3 20-7 20-8zm551 337c-6-12-11-30-11-41v-21h19l7 35c8 42 0 55-15 27zm-1341-72v-20h16c8 0 24 5 35 11l20 10-6 10c-4 5-19 9-36 9h-29v-20zm1300-18c-14-9-33-26-42-37l-16-20 9-3c5-2 9-13 9-23v-20l10 6c6 3 10 14 10 23 0 10 11 34 25 55 14 20 24 37 23 36-2 0-14-8-28-17zm-1225-2c-16-4-25-8-18-9 6 0 14-10 18-20l6-20 13 5 14 5 5 25c2 13 1 23-2 23-3-1-19-5-36-9zm-58-16-6-7 10-18c5-11 16-19 23-19h14l-11 25c-12 26-19 30-30 19zm-67-36v-23l10 15c13 19 13 30 0 30h-10v-22zm1755-245c21-15 45-17 45-4 0 5-14 11-32 13l-31 5 18-14zm63-10 12-5v-19c0-27 18-60 44-81l21-17-10-15c-5-8-53-68-106-133-127-156-252-273-291-273h-18v-10c0-5 7-10 15-10h15v-22l-17 7c-24 10-51 8-85-6l-29-12 11-7 12-7-36-22c-37-23-44-35-26-46l10-6-11-20-10-20 12-15c14-17 35-17 74 1l30 14-32-3c-17-2-37-7-42-11l-11-6v10c0 5 25 21 55 36l56 26 11-7 11-7-7 11-7 12h13l13 1-19 14-20 15-5-8c-3-4-16-15-28-26l-23-19-14 12-14 12-11-18-10-18-1 18v18l24 26 24 26 25-7 25-6 4 11 4 11 72 3 72 4v-56l19-17 19-17 7 11 6 10-6 30-7 30 28 10 27 11 17-6 17-5 84 73c91 80 193 187 242 255l30 42h47v10c0 18-44 38-122 56l-77 17-43 38-43 38 13 9 13 9-21 26c-12 15-27 27-33 26l-12-1 13-5zm-45-513-6-21-10 4c-6 2-12 8-14 14l-4 11 18 5c10 3 19 5 20 6 0 0-1-8-4-19zM655 853c-3-15-18-63-32-106l-25-78V528l34-49 33-50 23-6 23-6 24 11 24 11 4-7c2-4 7-19 10-33l7-26 24-11c26-12 36-7 36 17 0 9 13 30 28 47 16 17 36 52 46 78 10 25 25 53 33 61l15 15 77-6 78-7 6 22 5 21 57-6 57-7 8 14 9 13-30 13-29 12v23l15-12 14-12 13 5 13 5-18 1-18 1 6 11c4 5 18 14 31 19 24 9 33 30 14 30h-11l3 13c1 6-3 22-10 34l-12 22 35-6 35-6v12c0 6-1 13-2 15-2 3 8 17 22 32l25 27-105-8c-58-4-174-7-258-6l-152 2-31-25-31-26h-87l3 23c1 13 6 28 10 35l7 12h-10c-5 0-16 3-25 6l-15 6-6-29zm1402-344 11-11 19 11 18 10-29 1h-30l11-11zm65-188-10-29-21-12-21-11v-29h50v19l-15-5-15-6v11c0 6 4 11 8 11 5 0 24 14 43 30l34 31-15 9c-23 15-27 12-38-19zm68-32v-10l10 6c6 3 10 8 10 11 0 2-4 4-10 4-5 0-10-5-10-11zm-1185-16c-8-20-15-44-44-158-12-44-21-86-21-92V10h47l11 25 11 24-8 6c-5 2-11 23-13 44l-3 39 9-1 10-2 13 39c8 22 21 45 30 51l16 12-7 11-7 12h10c6 0 11 5 11 10v10h-58l-7-17zm1155 6v-10l10 6c6 3 10 8 10 11 0 2-4 4-10 4-5 0-10-5-10-11z"/></g><g fill="#b38557" transform="matrix(.1 0 0 -.1 0 300)"><path d="M1436 2845c-47-16-84-51-140-130l-43-60-22-65c-12-36-29-92-37-125l-16-60-8-125c-5-69-13-143-17-165l-9-40 7-40c4-22 10-57 14-77l7-37-26-46-27-45-42-27-42-27 17-4 17-3 5-17c3-9 12-55 21-102l17-85-5-47c-3-26-13-60-21-76l-15-29 11-11 11-11-16-7-17-6-14 12-15 11-18-16c-82-71-93-77-93-49v15l-10-6c-5-3-10-15-10-25v-18l-33-11-34-12-15 6-15 6-6-15-6-16h-24c-13 0-28-5-34-11l-10-10-64 11c-35 7-72 16-81 21-26 13-28 12-28-22v-31l19-5 19-5-5-18-5-18-26-12c-15-6-37-18-50-26l-22-15 11-22c15-28 28-37 56-37 12 0 45-5 74-11l52-11-14-9-14-9h16c9 0 31-7 49-16l33-17-27-14-27-14 6-9 6-10 32 1c18 0 64-7 102-16l70-16 100 11 99 12 51 19 50 19 145 6c143 5 215 15 251 35l19 10v14c0 8-4 15-9 15h-9l5 48 5 47-14-18-14-18-42-6c-23-3-40-8-38-12 2-3-12-5-32-5-51 2-50 2-57 24l-6 20h-29l-12 25c-6 14-9 28-5 31 7 8 78 26 100 25h18l6 15 5 14h33l-15 10c-19 13-91 13-110 0l-15-10h29l-11-11-12-12-16 7-16 6 11 20 11 20h-51v13c0 7 9 18 20 24l19 13 6-10 6-10h-12c-22 0-1-12 37-20l38-9 27 6 27 5 11 24c6 14 11 29 11 34v9l-15-5-15-6-20 23c-10 13-19 19-20 14v-10l-52 2c-67 2-64 1-51 14l11 11-13 47c-8 25-17 69-21 96-4 28-13 60-21 72l-15 22 5 13c2 7-2 29-8 49l-13 35 2 62c2 76 11 88 20 25 3-26 11-55 16-63l10-15v128l7-6c3-4 7-62 9-129l2-123 19-84 19-84 17-3 17-2 7 26c4 15 7 44 6 64v38l-11 13-11 13 5 60c2 32 10 69 16 81l11 21 11-4 12-5 14 26 14 26-54 49c-30 27-52 49-48 50 4 0 22-13 40-28 18-16 43-31 55-34l21-6 7 34 6 34h21l-5 15-6 14 31-19 32-19 13 11 13 10v58h-69l-11 19-10 19 6 31c4 17 10 31 15 31h8l-5 14-5 14 23 16c12 9 33 16 45 16 13 0 23 3 23 8v8l-53-2-53-3-15 10-14 9h13c18 0 15 17-9 50l-22 29 6 76c3 42 3 91 0 110l-5 33-19 5-18 5-15 37c-9 21-16 48-16 61v24h31l5 29 6 29 18-5 18-5 7 21 6 21 22 1c12 0 36 2 52 3l30 3 57-25 57-25 53-101 53-101 18-3 18-4 28 31 29 31 12-15 12-15h-32l7-27c4-16 8-43 7-61l-1-33-20-27c-11-15-31-32-43-39l-24-12-21-73c-12-40-27-83-34-96l-12-23 7-80 7-79h7c4 0 13 7 20 15l12 15h48v-16c0-8 12-32 27-52s28-38 29-40c0-1 11 1 24 6l22 8-16 16c-17 18-22 48-7 48 6 0 16-9 24-20l14-20 10 35c6 19 8 33 4 31-4-3-16 9-26 25-11 16-25 29-31 29h-11l1 53c0 28-3 63-7 77l-8 25 13-24 12-24 12 44 11 44 16-55c9-30 23-64 32-75l16-20-4 28-4 28 14-6 15-5-7 17c-3 10-11 39-17 64s-17 54-25 65l-14 19-15-19-14-20v54h-31l6 23c4 12 13 32 21 44l14 22v109l-15 12c-8 7-14 18-13 24s-4 32-11 59l-14 47-18 2c-11 0-25 1-31 2l-13 1 3-25 3-25-22 28c-11 15-24 25-28 23-4-3-15 8-25 24l-17 30 15-6 15-6-6 24c-3 13-11 29-17 37l-11 14 22-7 22-7-2 20c0 11-4 19-7 18-9-2-68 32-76 44l-7 12 10-6 9-6 17 19 16 19-15 12-15 12-36-1c-20-1-38-4-41-6-2-3-17 1-33 9l-28 15h-63l-63-1-39-14zm434-765c-6-11-12-20-14-20s-2 9 1 20 9 20 15 20h9l-11-20zm48-169 5-13-14 4c-7 2-15 10-17 17l-4 14 13-5c7-2 15-10 17-17zm-611-343-5-13-1 19c-1 11 2 17 5 13 3-3 4-12 1-19zm-4-214c6-6-16-34-27-34-3 0-6 9-6 20v20h13c8 0 16-3 20-6zm-151-86-12-12v48l12-12 12-12-12-12zm-22 18c0-3-4-8-10-11l-10-6v10c0 6 5 11 10 11 6 0 10-2 10-4zm210-45c0-10-26-9-36 2l-7 7h43v-9zm-90-30c0-6-4-12-9-15l-9-6-6 15-5 15h14c8 0 15-4 15-9zm-452-13c-2-6-13-16-23-22-11-6-24-17-30-24l-11-14-34 4-35 3-3 16-3 16 28 11c24 10 48 14 101 21l14 1-4-12zm-168-23v-15h-30v30h30v-15zm470-42c0-25-16-13-34 25l-18 37 26-24c14-14 26-30 26-38zm243 42 6-14-11-7-10-7-9 14c-13 20-11 29 5 29 8 0 16-7 19-15zm-393-42c0-5-5-15-10-23l-10-15v45h10c6 0 10-3 10-7zm431-10 29-17v-28l-22 6c-13 3-34 6-48 6s-31 4-39 9l-15 9 13 16 13 16h20c11 0 33-8 49-17zm209-43c0-5-5-10-11-10h-10l6 10c3 6 8 10 11 10 2 0 4-4 4-10zm-35-70c-3-5-10-10-16-10-5 0-9 5-9 10 0 6 7 10 16 10h15l-6-10zm-432-37-5-13-42 1-41 1 30 13c17 7 37 13 46 12l17-1-5-13zm425 1490c-20-5-23-18-8-28l11-7-6-19-7-20 12-14c7-8 9-15 5-15s-2-7 5-15l12-15h47l25 25 25 25h33l-11 13c-6 8-29 19-51 26l-41 12 23 19 23 19h-40c-22-1-48-3-57-6zm326-75c3-13 6-29 6-36v-13l10 6c6 3 10 17 10 30v23l-16 6-16 6 6-22zm-294-137c0-5 18-28 40-51l40-42v38l-33 32c-34 33-47 39-47 23zm484-366c-8-20 4-35 26-35h20l-12 25c-13 28-26 32-34 10zm-88-137c-3-13-6-35-6-50v-27l10-6 10-6v36c0 20 5 45 10 56l11 19h-29l-6-22zm-517-250c0-2-2-16-3-33-1-16-4-36-7-44l-4-13 13-5 12-5v51c0 28-2 51-5 51s-5-1-6-2zm-737-129c2-6 8-10 13-10s11 4 13 10l4 11h-34l4-11zm808 1c0-5 5-10 11-10h10l-6 10c-3 6-8 10-11 10-2 0-4-4-4-10zm-55-250c3-5 8-10 11-10 2 0 4 5 4 10 0 6-5 10-11 10h-10l6-10zm1015-105c0-16 16-20 24-6l6 9-15 6-15 5v-14zM490 990v-30h29l-10 30c-6 17-13 30-15 30s-4-13-4-30zm1962-203-100-123-83-78c-45-43-92-82-103-86l-21-9h32l31-1 103 98c57 53 128 122 159 152 30 31 67 64 83 73l27 17v30h14c8 0 17 7 20 15l6 16-26 9c-14 6-29 10-34 10-4 0-53-55-108-123zm291 63c14-11 29-20 34-20 11 1-37 40-49 40-6 0 1-9 15-20zM813 826c-17-14-38-26-47-26-8 0-33-7-54-15l-39-16-21-28c-27-37-44-103-43-170v-54l27-39c15-22 36-44 47-50l20-10 24 11c33 15 43 14 43-6l1-18 11 20c6 11 30 43 52 71 23 28 48 65 58 82l16 31 59-14c32-8 74-14 95-15h36l-5 20-5 19-20 7c-11 3-17 8-14 11s25-2 50-10l45-15 12 14 11 14-8 1c-5 1-16 1-25 0l-17-2-26 31c-23 28-33 50-22 50 2 0 20-7 39-15 20-8 47-15 59-14h23l-48 16-48 16 4 31 3 31 35-3 34-2-32 14-33 15v31h-89c-48 0-108 3-133 6l-44 6-31-26zm261-34c2-4-2-15-9-25l-13-18-6 17c-10 25 14 48 28 26zm-52-64c7-19-2-38-18-38-15 0-17 9-8 34 7 19 20 21 26 4zm203 102 18-20h38l21 20 22 20h-117l18-20zm835-380-15-10h35v10c0 12-1 12-20 0zm35-70-6-10h8c4 0 15 5 23 10l15 10h-17c-9 0-20-4-23-10zm35-61v-10l10 6c6 3 10 8 10 11 0 2-4 4-10 4-5 0-10-5-10-11z"/></g><g fill="#784c30" transform="matrix(.1 0 0 -.1 0 300)"><path d="M1465 2853c-11-2-41-19-67-36l-47-31-12-26c-6-14-15-33-20-42-4-9-6-25-4-37l4-20-14-11-14-12 11-26 11-27-1-114-2-115-11-33-11-33-10 6-10 7-10-14-10-14 5 23 5 22h-14c-17 0-16-3-5 36l9 31-9 49c-13 73-19 97-25 92-8-8-35-160-40-223-2-33-6-91-9-130l-6-70 12 12 12 12 13-17c19-24 17-32-6-32h-20v10c0 6-4 10-10 10h-10v-32c0-18 6-56 14-85l14-51-18-39c-9-21-31-53-48-70l-32-32 10-26c6-15 10-40 10-56s3-29 8-29h7l1 53 1 54 18 27c23 35 31 26 11-12l-16-31 3-66 3-66-11 14-11 15 4-72c2-39 7-86 10-104l7-33 21 43c12 24 27 55 34 69l12 26-15 36-16 36 11 38c6 21 14 40 18 43 10 7 40 108 40 137v23l-12 1h-13l23 11 22 11v85l15 28c8 16 15 37 15 47v17h10c6 0 10-7 10-15v-15h14c22 0 29-18 27-69l-1-45 16 19 15 20-5-25c-3-13-3-35 1-48l5-23 12 4c6 2 24-5 39-16l29-19 10 10 10 10-11 59c-7 32-13 67-14 78l-2 20 21 3 22 3-5 20-5 19h45l-28 24-27 24 4 13 5 14-14 17-14 16 9 79 9 78-8 21-8 21-33 21c-18 11-46 24-62 28l-29 7 7 68c3 38 11 80 18 94l11 25 56 16c70 19 130 44 147 62l14 13v-38l27-12 26-12 11 11c5 5 7 10 3 10s-2 10 5 23c7 12 11 25 10 30-1 4 3 7 9 7h10l-6 10-6 10h23l-12 15-12 15 18 1h19l-20 9-20 8-22-5-23-5v8c0 22-109 40-165 27zm-52-437c15-4 27-10 27-15v-9l-52 3c-66 3-63 2-48 20l13 15 16-4c9-2 28-7 44-10zm-8-86c-3-5-11-10-16-10h-10l6 10c3 6 11 10 16 10h10l-6-10zm8-72-5-53-15-23-15-24-13 19-13 19-7 57-7 57h81l-6-52zm-113-87c0-3 3-16 6-28l6-22-14 3c-7 2-20 6-29 10l-16 7 2 22c1 12 3 23 4 24 3 4 41-10 41-16zm-96-207 6-15-10 6c-6 3-10 10-10 16 0 14 7 11 14-7zm581 629c15-24 29-43 32-43 8 0-27 57-43 71l-17 14 28-42zm62-95c18-20 26-19 18 4-3 8-12 15-20 15h-15l17-19zm-41-22c3-8 14-16 25-19 25-7 24-3-6 17l-24 16 5-14zm74-7v-10l10 6c6 3 10 8 10 11 0 2-4 4-10 4-5 0-10-5-10-11zm-302-16c6-2 18-2 25 0l12 5h-50l13-5zm10-44-18-10v-39h21l-6 9-5 10 10 6 10 6v-41l25 12c14 6 25 15 25 21v9l15-6c26-10 16 3-15 19-34 17-39 18-62 4zm344-47c-15-58-35-87-71-105l-24-12-23-80c-13-44-24-86-24-94v-13l15 12c8 6 17 22 21 33 3 12 20 55 36 95l30 73 12-4 13-5 17 32 17 33-3 44-3 44-13-53zm-34-287-5-25 12-10 13-10 4 23c2 12 3 28 0 35-6 20-19 13-24-13zm-558-174c0-6 4-13 10-16l10-6-6 15c-7 18-14 21-14 7zm-113-158-16-49 20-89 20-90-4-57-3-58h18l-5-15-6-14 8-6 9-5-5 85-4 85h22l-5 8c-3 5-7 57-10 116l-5 107-9 15-9 16-16-49zm120 0c-3-5-9-27-12-49l-6-39 25-75 24-75 2 25c4 44-2 84-15 116l-13 31 9 15 9 16-8 23-9 22-6-10zm-165-345c-5-7-13-23-16-36l-7-22 20-26c12-15 21-35 21-46v-19l-10 6-11 7-15-13-15-13 2-38 3-38h-9c-6 0-10 6-11 13 0 6-2 18-2 25l-2 13-9-5-8-5-12 25-11 25-12-3c-17-3-78 30-78 42 0 5 5 12 10 15l11 7-6 18-6 18 11 7 10 6v-13l1-13 10 18 11 19-10 10-11 11-16-17c-9-9-20-16-25-16s-21-11-36-25l-27-25-13 11-14 11v-32l-26-10c-14-6-36-10-50-10h-24v-19l-42-11-41-12-66 12c-36 6-74 14-83 17l-18 4v-51h40v-9c0-6 8-10 18-11 63-2 132 1 160 9l32 10 5-10 6-9-15-21c-20-29-62-49-101-49h-33l-11 14-12 14-19-5-20-5-13 9-12 10-43-19-42-19v-12c0-7 6-20 13-29l12-16 65-10c36-6 82-14 103-17l37-6v-31l47 7 48 7-18-20-18-20-34-6c-19-4-37-11-41-17l-6-11 52 3 51 3 9-15 9-14 93-2 93-3-64 15c-36 8-68 18-73 23l-9 9 6 25 7 25 26 13c32 14 96 35 133 44l27 6 6 16 6 15-16 16-15 16 5 14c3 8 6 22 6 31v16l30-29 30-29-15-23-15-23h21c13 0 30 6 38 14l16 15 2-22c1-12 3-50 5-84 2-59 9-75 22-55l5 9 138 2 139 2 29 8 30 9-56 1c-31 1-82 6-113 13l-58 11 23 13c13 7 20 14 14 14h-10l15 10 15 10h-35v21l-9-5-9-6-12 15c-7 8-19 15-27 15h-14l3 23 3 22h40l1 22c1 12 4 29 7 38l7 16-22 8-21 8 11 7 12 7-7 12-7 12 17-13 16-14 13 5 13 4-27 13-27 13-12 28-11 29-19-21c-23-26-24-42-5-58 8-7 17-23 20-37l6-24-11-21c-14-27-20-20-25 31-2 22-8 49-14 60s-12 44-13 75c-1 30-3 55-3 55-1 0-6-6-12-12zm-182-180v-10l-15 12c-8 7-15 14-15 16s7 1 15-2c8-4 15-11 15-16zm-70-20v-7l-14 5-15 6 6 15 6 15 8-14c5-7 9-16 9-20zm-92-53c-6-14-13-23-15-21-5 5 15 46 22 46 3 0-1-11-7-25zm112-15v-40h-9c-5 0-12 9-16 20l-6 19 11 21c16 29 20 25 20-20zm10-60 15-10h-55v10c0 13 20 13 40 0zm350-20c0-5-5-10-11-10h-10l6 10c3 6 8 10 11 10 2 0 4-4 4-10zm3 335c0-17-3-40-7-52l-7-23 6-10 7-11 24 15c29 20 44 20 44 2v-14l23-6c12-3 32-6 45-6h22v28l17 6 16 7-11 11-12 12-13-19-14-18-7 11-7 12h9c6 0 13 7 16 16l6 15-53-1c-28-1-59-1-68-1l-15 1-11 28-10 27v-30zm-188-25c3-5 10-10 16-10 5 0 9 5 9 10 0 6-7 10-16 10h-15l6-10zm-65-72c0-11 32-10 50 2l15 9-32-2c-18-1-33-5-33-9zm365-248-6-10h10c6 0 11 5 11 10 0 6-2 10-4 10-3 0-8-4-11-10zm152-11c-17-10-23-29-9-29 5 0 16 6 27 13l18 14-9 6c-5 3-17 1-27-4zm885-235c-51-63-88-114-83-114 6 0 36 33 68 73 32 39 63 77 68 83 6 6 20 23 32 37l22 26-7 5c-4 3-50-47-100-110zM810 820l-34-30h-49l-34-21-33-21-14-27c-8-14-18-51-24-81l-9-55 4-38 5-38 13 11 13 11-5 18-5 19 22 7 21 7 9 24 10 24h58l12 15c7 8 19 15 26 15h14v13c0 8 9 22 19 31l20 18-6 14c-3 8-2 25 1 39l6 25h27l-5 25-4 25h-12c-6-1-27-14-46-30zm416 16c21-15 30-14 19 3-3 6-14 11-23 11h-16l20-14zm-206-6c8-5 19-10 23-10h8l-6 10c-3 6-14 10-23 10h-17l15-10zm-76-134c11-9 27-16 35-15l16 1-15 5c-8 3-24 10-35 15l-20 9 19-15zm1376-71c-24-25-42-45-39-45s25 20 49 45 42 45 39 45-25-20-49-45zm-1393-6c7-7 15-10 18-7s-2 9-12 12l-18 7 12-12zm1267-100-19-22 22 12c12 6 25 16 28 21l6 10h-9c-5 0-17-10-28-21z"/></g></g></svg>